<svg xmlns="http://www.w3.org/2000/svg" viewBox="0 0 64 64" fill="none">
  <!-- Helmet -->
  <path d="M24 8 C24 4 28 2 32 2 C36 2 40 4 40 8 L40 18 C40 20 38 22 36 22 L28 22 C26 22 24 20 24 18 Z" fill="#8a8a8a" stroke="#5a5a5a" stroke-width="1"/>
  <!-- Helmet visor -->
  <rect x="26" y="12" width="12" height="4" rx="1" fill="#4a4a4a"/>
  <line x1="28" y1="12" x2="28" y2="16" stroke="#5a5a5a" stroke-width="0.8"/>
  <line x1="30.5" y1="12" x2="30.5" y2="16" stroke="#5a5a5a" stroke-width="0.8"/>
  <line x1="33" y1="12" x2="33" y2="16" stroke="#5a5a5a" stroke-width="0.8"/>
  <line x1="35.5" y1="12" x2="35.5" y2="16" stroke="#5a5a5a" stroke-width="0.8"/>
  <!-- Plume -->
  <path d="M34 2 C36 -1 40 0 38 4 C37 6 35 5 34 3Z" fill="#cc3333"/>
  <path d="M36 0 C38 -2 42 -1 40 3 C39 5 37 3 36 1Z" fill="#e8a030"/>
  <!-- Chest plate -->
  <path d="M18 22 L22 20 L32 22 L42 20 L46 22 L46 42 C46 46 40 50 32 50 C24 50 18 46 18 42 Z" fill="#9a9a9a" stroke="#6a6a6a" stroke-width="1"/>
  <!-- Chest detail - center line -->
  <line x1="32" y1="22" x2="32" y2="48" stroke="#7a7a7a" stroke-width="1"/>
  <!-- Chest plate highlights -->
  <path d="M22 24 L32 26 L32 44 C28 43 22 40 22 36 Z" fill="#a8a8a8" opacity="0.5"/>
  <!-- Shoulder left -->
  <path d="M14 22 C12 22 10 24 10 27 L10 30 C10 32 12 34 14 34 L20 32 L20 22 Z" fill="#8a8a8a" stroke="#5a5a5a" stroke-width="1"/>
  <!-- Shoulder right -->
  <path d="M50 22 C52 22 54 24 54 27 L54 30 C54 32 52 34 50 34 L44 32 L44 22 Z" fill="#8a8a8a" stroke="#5a5a5a" stroke-width="1"/>
  <!-- Waist -->
  <path d="M20 48 L44 48 L42 52 L22 52 Z" fill="#7a7a7a" stroke="#5a5a5a" stroke-width="0.8"/>
  <!-- Legs -->
  <path d="M22 52 L24 62 L30 62 L30 52 Z" fill="#8a8a8a" stroke="#5a5a5a" stroke-width="0.8"/>
  <path d="M34 52 L34 62 L40 62 L42 52 Z" fill="#8a8a8a" stroke="#5a5a5a" stroke-width="0.8"/>
</svg>
