<?xml version="1.0" encoding="utf-8" ?><svg xmlns="http://www.w3.org/2000/svg" xmlns:xlink="http://www.w3.org/1999/xlink" width="1024" height="1024" viewBox="0 0 1024 1024"><path fill="#111" d="M501.318 28.7189C588.738 26.527 673.899 56.6379 740.512 113.293C824.127 185.515 866.619 277.291 874.587 386.759C894.997 397.453 923.877 414.697 926.156 440.556C926.631 445.941 926.491 451.67 926.492 457.1L926.464 485.114L926.438 515.179C926.405 530.111 927.011 539.405 918.945 552.68C911.78 564.472 903.362 569.799 892.401 577.405C892.335 578.036 892.252 578.665 892.153 579.292C889.44 596.326 880.173 609.904 866.281 619.809C853.56 682.087 815.104 743.003 768.265 785.347C763.791 789.392 759.233 793.417 754.607 797.286C754.522 806.773 755.188 816.739 755.106 826.253C754.692 874.463 830.338 867.282 835.653 910.367C838.156 930.664 796.803 950.652 779.753 957.115C699.222 987.64 609.222 994.235 523.625 995.861C511.949 995.98 500.272 995.93 488.597 995.71C457.214 995.275 425.862 993.571 394.617 990.6C343.893 985.281 232.993 967.053 198.034 930.243C192.894 924.83 188.532 917.569 188.915 909.856C190.393 880.083 239.893 871.196 257.341 854.445C273.383 839.045 268.7 817.383 269.141 797.42C214.292 752.249 175.713 690.386 159.282 621.257C142.62 607.775 136.472 598.446 132.002 577.416C119.869 568.739 111.869 564.998 104.156 550.888C93.8563 532.047 97.7703 510.698 97.0394 489.892C96.5214 475.146 97.0859 459.289 97.3585 444.465C97.8842 415.883 127.204 398.239 149.92 386.505C151.888 368.015 152.973 352.921 156.568 334.139C169.558 265.788 200.618 202.162 246.519 149.877C303.296 86.3883 372.901 46.7169 457.53 32.8037C472.088 30.4105 486.597 29.5411 501.318 28.7189ZM300.707 116.354C335.382 150.223 377.991 163.757 423.866 174.22C408.648 185.411 398.903 192.677 385.552 206.559C341.649 252.209 307.761 326.95 298.29 389.242C292.315 426.123 292.806 463.763 299.743 500.475C309.96 502.705 321.63 504.365 332.017 506.037C365.343 511.426 398.897 515.288 432.575 517.613C444.028 518.445 456.708 519.61 468.08 519.022C473.953 518.718 483.366 515.831 489.232 514.466C549.292 500.49 606.323 465.2 639.346 412.227C662.349 375.368 673.127 338.1 672.985 294.627C678.331 303.032 683.146 313.479 687.3 322.601C709.007 370.275 719.375 427.273 708.214 478.965C706.348 487.609 703.614 497.157 701.185 505.712C713.067 504.572 728.896 501.144 741.194 499.27C758.03 412.66 737.207 320.033 687.68 247.497C666.467 216.428 642.314 191.438 610.264 171.63C614.564 171.241 618.887 169.841 623.074 168.788C660.37 159.406 694.084 142.009 720.638 113.737C701.877 99.9938 684.528 87.3753 663.351 77.0957C615.052 53.6509 559.224 39.2233 505.33 41.225C483.37 42.0197 463.201 43.9833 441.602 48.6495C393.593 59.0214 337.746 83.417 300.707 116.354ZM511.773 855.035C512.476 833.759 511.81 810.294 511.819 788.799L511.996 688.554C484.006 688.026 456.034 686.794 428.106 684.857C409.625 683.409 388.196 680.381 370.297 679.448C370.185 688.219 371.808 700.126 373.162 708.877C379.425 749.332 394.687 784.502 423.438 813.923C442.835 833.476 467.566 846.877 494.538 852.452C499.405 853.506 506.979 854.983 511.773 855.035ZM913.187 436.417C906.016 420.955 890.189 408.396 874.814 401.985C874.537 406.482 874.584 409.932 874.698 414.455C889.338 428.551 892.637 443.097 876.66 458.277C858.345 475.678 833.495 485.104 810.043 493.397C779.061 504.329 750.117 510.116 718.224 516.085C666.579 525.751 616.037 530.309 563.567 532.184C541.637 532.967 521.518 533.699 499.466 533.454C425.161 533.328 351.059 525.719 278.279 510.741C249.562 504.539 221.295 497.445 194.108 486.024C177.76 479.156 160.532 471.36 147.685 458.722C133.9 445.161 134.466 429.515 148.771 416.527C149.089 412.215 149.751 405.599 148.972 401.531C135.113 408.726 116.242 421.023 111.198 436.51C109.035 443.15 109.822 449.747 113.036 455.886C128.24 484.93 191.568 506.651 221.623 515.77C357.681 557.053 540.18 561.521 680.79 541.805C704.37 538.388 727.813 534.079 751.067 528.885C789.815 520.415 834.941 507.473 870.349 489.444C884.922 482.024 909.012 465.928 913.584 449.771C914.984 444.827 914.555 441.243 913.187 436.417ZM147.087 585.29C148.82 592.268 151.35 597.175 156.515 602.352C209.919 651.326 377.747 670.058 450.181 674.115C487.615 676.252 525.132 676.478 562.588 674.792C637.339 671.56 716.869 661.048 788.864 640.189C814.837 632.664 850.52 620.39 869.592 600.355C872.827 596.958 877.308 589.764 877.482 585.082C836.207 605.024 790.778 618.052 745.847 627.552C618.051 654.57 479.427 656.937 349.937 640.309C298.163 633.66 242.19 620.56 192.914 603.996C177.648 598.865 161.866 591.759 147.087 585.29ZM454.551 852.439C451.983 849.802 445.518 846.03 442.206 843.975C392.54 813.157 366.069 755.504 359.051 699.105C358.165 691.982 357.943 684.715 357.049 677.739C335.254 673.997 315.219 671.568 293.136 667.208C284.392 665.539 275.687 663.677 267.025 661.625C261.505 660.315 253.184 658.04 247.784 657.204C250.338 669.241 253.204 681.054 257.391 692.654C276.127 743.084 310.697 786.087 355.923 815.221C380.679 831.364 408.043 843.096 436.804 849.899C441.603 851.023 449.796 852.938 454.551 852.439ZM523.448 981.268L524.015 982.058C525.331 984.234 528.929 983.187 531.545 983.103C535.367 983 539.274 983.027 543.065 982.641C547.06 982.639 552.629 982.512 556.516 982.035C560.349 982.067 576.869 981.141 580.265 980.545C587.241 980.556 595.903 979.593 603.048 979.066L604.273 977.956C594.832 978.275 570.865 978.292 561.773 977.574C549.533 977.569 537.395 977.243 525.177 977.173C516.852 976.518 508.495 976.343 500.167 975.704C475.482 973.809 437.686 969.756 415.466 958.53C410.009 955.773 403.598 951.872 401.756 945.663C400.769 942.338 401.34 939.002 403.157 936.07C418.764 910.881 507.709 909.518 536.702 906.641C556.491 904.678 576.126 902.172 595.439 897.356C597.615 897.178 600.199 896.453 602.414 896.014L602.72 895.938C604.53 895.476 606.332 894.994 608.151 894.572C608.438 894.494 610.282 894.096 610.303 893.637C609.625 893.142 608.396 893.614 607.7 893.855C606.561 893.976 602.56 894.389 601.626 894.743C600.116 894.931 596.73 895.271 595.44 895.949C582.265 896.531 568.965 898.152 555.349 898.71C477.389 901.906 409.309 898.054 334.699 873.985C329.953 903.334 317.694 919.644 291.308 932.653C285.537 935.499 267.549 940.423 266.447 946.298C268.027 954.265 294.115 960.191 302.183 962.124C373.563 979.224 448.385 985.571 521.637 983.077C521.853 983.07 523.047 982.657 523.296 982.575L523.448 981.268ZM165.975 356.366C175.703 372.779 187.396 388.345 197.346 404.76L200.098 408.583C212.66 302.631 247.031 228.09 317.612 147.651C306.407 139.506 300 134.323 289.662 124.995C278.543 133.405 267.604 145.481 258.39 155.845C217.179 201.654 187.898 256.917 173.138 316.741C170.662 326.829 167.936 339.027 166.54 349.331C166.235 351.665 166.046 354.013 165.975 356.366ZM740.62 827.355C743.475 821.45 742.92 816.074 742.578 809.597C656.127 870.255 515.106 876.493 413.917 859.639C374.684 853.105 313.544 835.231 282.531 808.975C282.094 819.279 280.348 826.06 287.751 833.92C295.493 842.138 305.577 846.914 315.611 851.753C367.655 876.217 430.014 885.276 487.154 887.255C558.39 889.722 636.055 883.256 702.177 854.801C715.365 849.126 732.866 839.618 740.62 827.355ZM557.607 563.55C557.478 571.756 557.002 634.454 558.05 637.216C559.202 637.348 560.012 637.447 561.178 637.478C583.939 635.987 606.87 634.846 629.551 632.43C637.401 631.593 647.871 630.713 655.46 629.344C655.421 620.106 656.522 561.753 655.183 557.693C654.048 557.656 653.573 557.608 652.455 557.702C622.482 560.278 587.842 562.853 557.607 563.55ZM368.467 629.339C385.404 632.186 405.351 633.454 422.508 634.789C435.584 635.806 451.185 637.125 464.274 637.213C464.967 632.229 464.64 610.522 464.667 604.484L464.79 577.555C464.811 573.532 465.065 567.538 464.807 563.71C446.98 562.929 429.161 561.961 411.354 560.809C397.1 559.814 382.663 558.403 368.5 557.472C367.781 566.517 368.164 581.145 368.216 590.5C368.283 602.51 367.773 617.512 368.467 629.339ZM293.518 856.242C288.796 866.302 285.262 875.58 278.648 884.681C266.277 901.701 250.783 910.505 231.632 918.157C230.839 918.401 230.837 918.385 230.122 918.758C229.588 921.185 226.549 921.93 224.217 922.767L223.443 923.051C225.309 922.885 228.998 922.653 230.646 922.127C268.172 919.049 298.609 902.354 309.304 864.659C304.225 862.134 298.804 858.921 293.518 856.242ZM804.498 921.666C766.682 911.191 743.261 892.555 731.687 854.3C727.103 857.193 721.918 859.956 717.156 862.612C717.774 869.818 718.834 876.193 722.209 882.696C737.017 911.222 774.271 922.646 804.153 923.16L804.498 921.666ZM128.586 489.561C122.739 484.793 114.621 478.309 110.066 472.339L109.873 509.377C109.715 529.548 107.966 547.588 128.654 559.284C129.109 551.042 128.742 542.26 128.685 533.954C128.562 519.157 128.529 504.359 128.586 489.561ZM895.91 489.149C895.716 510.508 895.034 537.724 896.003 558.818C920.484 542.64 913.664 521.231 914.505 495.84C914.692 490.183 915.209 479.244 914.349 474.004C909.061 478.235 901.07 485.519 895.91 489.149ZM193.883 590.974C215.684 598.027 237.076 605.075 259.492 610.131C265.176 611.414 274.972 614.228 280.416 614.86C280.838 591.098 280.414 567.028 280.588 543.213C257.576 539.052 232.044 531.982 209.554 525.303C205.701 524.159 197.508 521.779 194.014 520.471L193.718 565.517C193.681 572.405 193.37 584.299 193.883 590.974ZM273.05 322.015C265.494 327.618 263.131 336.519 263.486 345.5C263.757 352.323 265.004 357.369 272.657 356.596L273.429 356.228C277.861 354.211 280.057 348.565 281.315 344.201C281.633 343.07 281.871 341.918 282.027 340.753C282.869 334.924 283.356 328.775 279.787 323.693C278.341 321.633 275.176 321.912 273.05 322.015ZM745.042 543.305C745.58 566.304 744.078 592.363 745.092 614.698L745.773 614.869C751.804 613.739 757.871 612.119 763.819 610.583C786.194 604.802 808.224 598.753 829.904 590.662C829.985 584.331 830.303 521.933 829.719 520.633L828.925 520.527C805.314 528.643 770.383 538.586 745.042 543.305ZM776.588 656.828C775.596 662.541 773.92 669.722 772.48 675.337C758.943 726.023 729.679 771.111 688.898 804.115C676.951 813.843 662.463 823.348 649.201 831.18L648.389 831.624C647.411 832.167 646.499 832.671 645.503 833.19C644.769 835.143 644.601 835.156 646.364 836.319C647.851 835.781 649.035 835.503 650.438 834.8C664.374 830.757 684.813 819.918 696.836 811.545C750.518 774.16 783.084 715.293 795.391 652.175C789.112 653.679 782.844 655.23 776.588 656.828ZM343.677 823.367C343.527 822.923 343.306 822.139 342.904 821.836C333.027 814.382 322.89 807.161 313.743 798.793C273.945 762.385 241.64 706.686 234.121 652.985C216.772 647.905 199.545 642.043 182.959 634.869C180.006 633.592 177.018 632.287 174.029 631.101C176.463 640.927 180.618 652.227 184.442 661.743C207.234 718.454 247.311 770.684 299.368 803.387C307.189 808.3 335.709 822.563 343.677 823.367ZM656.735 679.533C656.698 680.109 656.654 680.684 656.605 681.26C652.086 733.892 633.579 782.29 597.295 821.24C588.68 830.487 579.17 838.358 569.503 846.451C570.745 847.889 571.731 847.514 573.708 847.886C582.567 844.979 594.654 836.681 601.855 830.85C646.341 794.829 668.359 732.724 673.693 677.076C667.814 677.89 662.615 678.554 656.735 679.533ZM708.474 150.143C705.215 150.943 703.033 152.087 701.233 155.114C699.845 157.457 699.458 160.26 700.161 162.891C701.517 168.081 713.481 175.921 717.505 181.149C724.739 190.548 729.912 199.975 735.76 210.242C738.328 214.554 745.402 216.394 750.417 215.527C756.281 212.987 758.003 210.709 759.645 204.448C753.519 185.332 734.951 162.243 717.038 152.45C714.012 150.796 711.895 150.185 708.474 150.143ZM295.795 287.328C309.518 286.484 312.526 272.602 317.317 262.383C319.408 257.924 321.692 253.521 324.009 249.173C330.067 237.656 337.021 226.633 344.806 216.206C349.818 209.613 356.615 202.441 360.706 195.548C364.426 189.28 365.428 177.689 354.747 178.487C329.291 189.002 301.092 238.021 290.119 263.107C286.18 272.11 283.111 284.43 295.795 287.328Z"/><path fill="#111" d="M499.607 64.276C558.115 61.8733 615.711 79.3571 663.011 113.878C656.725 117.445 646.089 121.812 639.308 124.581C602.223 140.099 562.8 149.292 522.677 151.776C467.572 154.575 409.676 136.981 360.097 114.343C364.279 110.491 377.646 102.425 382.962 99.3972C419.831 78.3983 457.287 66.8288 499.607 64.276Z"/><defs><linearGradient id="gradient_0" gradientUnits="userSpaceOnUse" x1="567.38171" y1="976.06079" x2="567.61902" y2="980.45276"><stop offset="0" stop-color="#FCFCFC" stop-opacity="0.86666667"/><stop offset="1" stop-color="white" stop-opacity="0.98823529"/></linearGradient></defs><path fill="url(#gradient_0)" d="M525.177 977.173C537.395 977.243 549.533 977.569 561.773 977.574C570.865 978.292 594.832 978.275 604.273 977.956L603.048 979.066C595.903 979.593 587.241 980.556 580.265 980.545C574.628 979.87 566.341 980.788 560.468 980.482C559.832 978.274 554.664 980.953 552.798 980.054C551.615 980.078 545.542 978.864 544.698 979.188C540.228 980.906 530.154 980.578 525.743 980.075C525.697 978.381 525.918 978.496 525.177 977.173Z"/><path fill="#FEFEFE" fill-opacity="0.94117647" d="M525.743 980.075C530.154 980.578 540.228 980.906 544.698 979.188C545.542 978.864 551.615 980.078 552.798 980.054C554.664 980.953 559.832 978.274 560.468 980.482C558.727 980.616 555.548 980.779 553.897 981.293C554.721 981.569 555.637 981.763 556.516 982.035C552.629 982.512 547.06 982.639 543.065 982.641C543.097 982.643 533.931 981.957 534.246 981.914L531.758 982.19C531.422 982.201 531.086 982.211 530.75 982.222L530.789 982.198L530.764 982.261C531.024 982.541 531.285 982.822 531.545 983.103C528.929 983.187 525.331 984.234 524.015 982.058L523.448 981.268C524.281 980.758 524.851 980.5 525.743 980.075Z"/><path fill="#646666" d="M561.773 977.574C571.783 977.009 583.907 977.54 594.074 977.452C598.556 977.413 611.648 977.254 615.589 977.756C614.27 978.767 610.238 978.602 608.63 978.39C606.655 978.624 605.053 978.908 603.048 979.066L604.273 977.956C594.832 978.275 570.865 978.292 561.773 977.574Z"/><path fill="#CDCED0" d="M604.273 977.956C605.917 978.055 607.006 978.147 608.63 978.39C606.655 978.624 605.053 978.908 603.048 979.066L604.273 977.956Z"/><path fill="#FEFEFE" d="M230.122 918.758C229.588 921.185 226.549 921.93 224.217 922.767L223.443 923.051C222.42 923.01 222.101 923.012 221.08 923.075C217.817 923.681 213.293 923.507 209.868 923.52C210.933 923.088 211.859 922.635 213.002 922.492C214.047 922.353 215.095 922.243 216.147 922.163C220.492 921.562 225.846 920.011 230.122 918.758Z"/><path fill="#646666" d="M209.868 923.52C210.933 923.088 211.859 922.635 213.002 922.492C214.047 922.353 215.095 922.243 216.147 922.163C216.357 923.528 219.819 923.015 221.08 923.075C217.817 923.681 213.293 923.507 209.868 923.52Z"/><path fill="#FEFEFE" d="M558.126 853.576C559.712 852.47 568.076 846.605 569.503 846.451C570.745 847.889 571.731 847.514 573.708 847.886L573.292 848.112C569.108 850.427 562.703 852.223 558.126 853.576Z"/><path fill="#FEFEFE" fill-opacity="0.98039216" d="M560.468 980.482C566.341 980.788 574.628 979.87 580.265 980.545C576.869 981.141 560.349 982.067 556.516 982.035C555.637 981.763 554.721 981.569 553.897 981.293C555.548 980.779 558.727 980.616 560.468 980.482Z"/><path fill="#CDCED0" d="M639.362 838.842C634.909 840.614 628.811 842.03 624.157 843.368L623.911 843.229L623.899 843.243C624.159 842.676 635.381 837.87 637.105 837.079C638.481 837.874 638.186 838.041 639.362 838.842Z"/><path fill="#FEFEFE" d="M637.105 837.079C639.655 836.024 642.369 834.323 644.855 833.437L645.503 833.19C644.769 835.143 644.601 835.156 646.364 836.319C644.123 837.382 641.716 838.063 639.362 838.842C638.186 838.041 638.481 837.874 637.105 837.079Z"/><path fill="#FEFEFE" fill-opacity="0.14509805" d="M645.503 833.19C646.499 832.671 647.411 832.167 648.389 831.624L649.201 831.18C651.921 834.369 648.751 832.68 650.438 834.8C649.035 835.503 647.851 835.781 646.364 836.319C644.601 835.156 644.769 835.143 645.503 833.19Z"/><path fill="#FEFEFE" fill-opacity="0.61960787" d="M230.122 918.758C230.837 918.385 230.839 918.401 231.632 918.157C232.232 921.381 231.268 919.407 230.646 922.127C228.998 922.653 225.309 922.885 223.443 923.051L224.217 922.767C226.549 921.93 229.588 921.185 230.122 918.758Z"/><path fill="#FEFEFE" fill-opacity="0.98431373" d="M595.44 895.949C596.73 895.271 600.116 894.931 601.626 894.743L602.414 896.014C600.199 896.453 597.615 897.178 595.439 897.356L595.44 895.949Z"/><path fill="#CDCED0" d="M804.498 921.666C806.733 921.846 808.409 922.414 810.702 922.477L811.284 923.66C808.907 923.462 806.35 923.587 804.153 923.16L804.498 921.666Z"/><path fill="#CDCED0" fill-opacity="0.81568629" d="M607.7 893.855L608.151 894.572C606.332 894.994 604.53 895.476 602.72 895.938L602.414 896.014L601.626 894.743C602.56 894.389 606.561 893.976 607.7 893.855Z"/><path fill="#FEFEFE" fill-opacity="0.95686275" d="M531.545 983.103C531.285 982.822 531.024 982.541 530.764 982.261L530.789 982.198L530.75 982.222C531.086 982.211 531.422 982.201 531.758 982.19L534.246 981.914C533.931 981.957 543.097 982.643 543.065 982.641C539.274 983.027 535.367 983 531.545 983.103Z"/><path fill="#646666" fill-opacity="0.89803922" d="M607.7 893.855C608.396 893.614 609.625 893.142 610.303 893.637C610.282 894.096 608.438 894.494 608.151 894.572L607.7 893.855Z"/><path fill="#646666" d="M810.702 922.477L811.364 922.583C813.359 922.875 813.212 923.39 811.284 923.66L810.702 922.477Z"/></svg>