<svg xmlns="http://www.w3.org/2000/svg" viewBox="0 0 120 120" width="120" height="120">
  <defs>
    <radialGradient id="mbg" cx="50%" cy="40%" r="60%">
      <stop offset="0%" stop-color="#1a0a3e"/>
      <stop offset="100%" stop-color="#0d0520"/>
    </radialGradient>
  </defs>
  <circle cx="60" cy="60" r="58" fill="url(#mbg)" stroke="#7b68ee" stroke-width="3"/>
  <!-- Hat -->
  <path d="M60 8 L42 55 Q60 48 78 55 Z" fill="#3a1a7e" stroke="#7b68ee" stroke-width="1.5"/>
  <!-- Hat brim -->
  <ellipse cx="60" cy="55" rx="28" ry="6" fill="#2d1566" stroke="#7b68ee" stroke-width="1"/>
  <!-- Face -->
  <ellipse cx="60" cy="66" rx="16" ry="14" fill="#d4a574"/>
  <!-- Eyes -->
  <circle cx="54" cy="64" r="2.5" fill="#7b68ee"/>
  <circle cx="66" cy="64" r="2.5" fill="#7b68ee"/>
  <circle cx="54" cy="63.5" r="1" fill="#fff"/>
  <circle cx="66" cy="63.5" r="1" fill="#fff"/>
  <!-- Beard -->
  <path d="M48 72 Q52 82 60 88 Q68 82 72 72 Q66 76 60 76 Q54 76 48 72" fill="#aaa"/>
  <!-- Staff glow -->
  <circle cx="88" cy="30" r="8" fill="#7b68ee" opacity="0.3"/>
  <circle cx="88" cy="30" r="4" fill="#b8a9ff" opacity="0.7"/>
  <!-- Staff -->
  <line x1="88" y1="34" x2="78" y2="100" stroke="#8B6914" stroke-width="3" stroke-linecap="round"/>
</svg>
