<svg xmlns="http://www.w3.org/2000/svg" viewBox="0 0 120 120" width="120" height="120">
  <defs>
    <radialGradient id="pbg" cx="50%" cy="40%" r="60%">
      <stop offset="0%" stop-color="#fdf6e3"/>
      <stop offset="100%" stop-color="#c4a44a"/>
    </radialGradient>
  </defs>
  <circle cx="60" cy="60" r="58" fill="url(#pbg)" stroke="#ffd700" stroke-width="3"/>
  <!-- Hood -->
  <path d="M34 62 Q36 30 60 24 Q84 30 86 62 Q78 54 60 52 Q42 54 34 62" fill="#f5f5dc" stroke="#daa520" stroke-width="1.5"/>
  <!-- Face -->
  <ellipse cx="60" cy="64" rx="16" ry="14" fill="#e8c49a"/>
  <!-- Eyes (serene, closed) -->
  <path d="M50 62 Q54 60 58 62" fill="none" stroke="#665" stroke-width="1.5" stroke-linecap="round"/>
  <path d="M62 62 Q66 60 70 62" fill="none" stroke="#665" stroke-width="1.5" stroke-linecap="round"/>
  <!-- Gentle smile -->
  <path d="M54 70 Q60 74 66 70" fill="none" stroke="#887" stroke-width="1.2" stroke-linecap="round"/>
  <!-- Holy cross -->
  <rect x="56" y="84" width="8" height="22" rx="1" fill="#ffd700"/>
  <rect x="49" y="90" width="22" height="8" rx="1" fill="#ffd700"/>
  <!-- Halo -->
  <ellipse cx="60" cy="26" rx="18" ry="5" fill="none" stroke="#ffd700" stroke-width="2" opacity="0.6"/>
  <!-- Glow dots -->
  <circle cx="38" cy="44" r="2" fill="#ffd700" opacity="0.4"/>
  <circle cx="82" cy="44" r="2" fill="#ffd700" opacity="0.4"/>
</svg>
