<svg xmlns="http://www.w3.org/2000/svg" viewBox="0 0 120 120" width="120" height="120">
  <defs>
    <radialGradient id="rbg" cx="50%" cy="40%" r="60%">
      <stop offset="0%" stop-color="#1a3a1a"/>
      <stop offset="100%" stop-color="#0d1f0d"/>
    </radialGradient>
  </defs>
  <circle cx="60" cy="60" r="58" fill="url(#rbg)" stroke="#2ecc71" stroke-width="3"/>
  <!-- Hood -->
  <path d="M36 60 Q38 32 60 26 Q82 32 84 60 Q76 52 60 50 Q44 52 36 60" fill="#2d5a2d" stroke="#3a7a3a" stroke-width="1.5"/>
  <!-- Face (half shadowed) -->
  <ellipse cx="60" cy="64" rx="15" ry="13" fill="#c4956a"/>
  <ellipse cx="54" cy="64" rx="8" ry="13" fill="#b08558" opacity="0.5"/>
  <!-- Eyes (sharp) -->
  <path d="M48 62 L54 60 L56 62 L54 63 Z" fill="#2ecc71"/>
  <path d="M64 62 L70 60 L72 62 L70 63 Z" fill="#2ecc71"/>
  <!-- Mouth (determined) -->
  <line x1="54" y1="71" x2="66" y2="71" stroke="#8a6040" stroke-width="1.2" stroke-linecap="round"/>
  <!-- Bow -->
  <path d="M20 30 Q14 60 20 90" fill="none" stroke="#8B6914" stroke-width="3" stroke-linecap="round"/>
  <!-- Bowstring -->
  <line x1="20" y1="30" x2="20" y2="90" stroke="#ddd" stroke-width="1"/>
  <!-- Arrow -->
  <line x1="20" y1="60" x2="50" y2="60" stroke="#8B6914" stroke-width="2"/>
  <polygon points="50,56 58,60 50,64" fill="#aaa"/>
  <!-- Feather on arrow -->
  <line x1="22" y1="58" x2="26" y2="55" stroke="#2ecc71" stroke-width="1.5"/>
  <line x1="22" y1="62" x2="26" y2="65" stroke="#2ecc71" stroke-width="1.5"/>
</svg>
