<svg xmlns="http://www.w3.org/2000/svg" viewBox="0 0 120 120" width="120" height="120">
  <defs>
    <radialGradient id="wbg" cx="50%" cy="40%" r="60%">
      <stop offset="0%" stop-color="#8B4513"/>
      <stop offset="100%" stop-color="#4a2106"/>
    </radialGradient>
  </defs>
  <circle cx="60" cy="60" r="58" fill="url(#wbg)" stroke="#c8a84e" stroke-width="3"/>
  <!-- Helmet -->
  <path d="M35 52 Q36 28 60 22 Q84 28 85 52 L82 56 Q60 50 38 56 Z" fill="#888" stroke="#666" stroke-width="1.5"/>
  <!-- Helmet visor -->
  <rect x="44" y="46" width="32" height="8" rx="2" fill="#555"/>
  <!-- Eyes -->
  <circle cx="50" cy="50" r="2" fill="#ffd700"/>
  <circle cx="70" cy="50" r="2" fill="#ffd700"/>
  <!-- Chin guard -->
  <path d="M42 56 Q60 64 78 56 Q76 72 60 76 Q44 72 42 56" fill="#777" stroke="#666" stroke-width="1"/>
  <!-- Crossed swords -->
  <line x1="30" y1="90" x2="55" y2="68" stroke="#c8a84e" stroke-width="3" stroke-linecap="round"/>
  <line x1="90" y1="90" x2="65" y2="68" stroke="#c8a84e" stroke-width="3" stroke-linecap="round"/>
  <!-- Sword guards -->
  <line x1="50" y1="66" x2="60" y2="72" stroke="#c8a84e" stroke-width="2.5"/>
  <line x1="70" y1="66" x2="60" y2="72" stroke="#c8a84e" stroke-width="2.5"/>
</svg>
