<svg xmlns="http://www.w3.org/2000/svg" viewBox="0 0 1920 300" width="1920" height="300">
  <defs>
    <linearGradient id="bg" x1="0%" y1="0%" x2="0%" y2="100%">
      <stop offset="0%" stop-color="#141a2e"/>
      <stop offset="100%" stop-color="#0a0d1a"/>
    </linearGradient>
    <pattern id="castleStone" x="0" y="0" width="80" height="60" patternUnits="userSpaceOnUse">
      <!-- Castle stone blocks -->
      <rect x="1" y="1" width="38" height="28" rx="1" fill="none" stroke="#4a6fa5" stroke-width="0.5" opacity="0.07"/>
      <rect x="41" y="1" width="38" height="28" rx="1" fill="none" stroke="#4a6fa5" stroke-width="0.5" opacity="0.06"/>
      <rect x="20" y="31" width="38" height="28" rx="1" fill="none" stroke="#4a6fa5" stroke-width="0.5" opacity="0.07"/>
      <rect x="60" y="31" width="19" height="28" rx="1" fill="none" stroke="#4a6fa5" stroke-width="0.5" opacity="0.05"/>
      <rect x="0" y="31" width="18" height="28" rx="1" fill="none" stroke="#4a6fa5" stroke-width="0.5" opacity="0.05"/>
    </pattern>
    <pattern id="banner" x="0" y="0" width="300" height="300" patternUnits="userSpaceOnUse">
      <!-- Faint heraldic cross -->
      <rect x="140" y="50" width="20" height="200" fill="#4a6fa5" opacity="0.04"/>
      <rect x="100" y="120" width="100" height="20" fill="#4a6fa5" opacity="0.04"/>
    </pattern>
    <linearGradient id="steelShine" x1="0%" y1="0%" x2="100%" y2="100%">
      <stop offset="0%" stop-color="#4a6fa5" stop-opacity="0.04"/>
      <stop offset="50%" stop-color="#4a6fa5" stop-opacity="0"/>
      <stop offset="100%" stop-color="#4a6fa5" stop-opacity="0.03"/>
    </linearGradient>
  </defs>
  <rect width="1920" height="300" fill="url(#bg)"/>
  <rect width="1920" height="300" fill="url(#castleStone)"/>
  <rect width="1920" height="300" fill="url(#banner)"/>
  <rect width="1920" height="300" fill="url(#steelShine)"/>
  <!-- Castle battlement silhouette along top -->
  <path d="M0,0 L0,15 L30,15 L30,8 L60,8 L60,15 L90,15 L90,8 L120,8 L120,15 L150,15 L150,8 L180,8 L180,15 L210,15 L210,8 L240,8 L240,15 L270,15 L270,8 L300,8 L300,15 L330,15 L330,8 L360,8 L360,15 L390,15 L390,8 L420,8 L420,15 L450,15 L450,8 L480,8 L480,15 L510,15 L510,8 L540,8 L540,15 L570,15 L570,8 L600,8 L600,15 L630,15 L630,8 L660,8 L660,15 L690,15 L690,8 L720,8 L720,15 L750,15 L750,8 L780,8 L780,15 L810,15 L810,8 L840,8 L840,15 L870,15 L870,8 L900,8 L900,15 L930,15 L930,8 L960,8 L960,15 L990,15 L990,8 L1020,8 L1020,15 L1050,15 L1050,8 L1080,8 L1080,15 L1110,15 L1110,8 L1140,8 L1140,15 L1170,15 L1170,8 L1200,8 L1200,15 L1230,15 L1230,8 L1260,8 L1260,15 L1290,15 L1290,8 L1320,8 L1320,15 L1350,15 L1350,8 L1380,8 L1380,15 L1410,15 L1410,8 L1440,8 L1440,15 L1470,15 L1470,8 L1500,8 L1500,15 L1530,15 L1530,8 L1560,8 L1560,15 L1590,15 L1590,8 L1620,8 L1620,15 L1650,15 L1650,8 L1680,8 L1680,15 L1710,15 L1710,8 L1740,8 L1740,15 L1770,15 L1770,8 L1800,8 L1800,15 L1830,15 L1830,8 L1860,8 L1860,15 L1890,15 L1890,8 L1920,8 L1920,0 Z" fill="#1a2040" opacity="0.1"/>
  <!-- Faint vignette -->
  <rect width="1920" height="300" fill="none" stroke="#000000" stroke-width="80" stroke-opacity="0.3"/>
</svg>
